<?xml version="1.0" encoding="utf-8"?>
<!-- Generator: Adobe Illustrator 25.2.1, SVG Export Plug-In . SVG Version: 6.00 Build 0)  -->
<svg version="1.1" id="Layer_1" xmlns="http://www.w3.org/2000/svg" xmlns:xlink="http://www.w3.org/1999/xlink" x="0px" y="0px"
	 viewBox="0 0 445.5 401.1" style="enable-background:new 0 0 445.5 401.1;" xml:space="preserve">
<style type="text/css">
	.st0{fill:#29243A;}
</style>
<path class="st0" d="M375.9,372.3h65.9c1.9-0.1,3.4,1.4,3.5,3.3c0,0.1,0,0.1,0,0.2l0.2,20.2c0,1.8-1.5,3.3-3.4,3.3H442h-65.9
	c-1.8,0.1-3.4-1.3-3.5-3.2V396l-0.2-20.2c-0.1-1.9,1.4-3.4,3.3-3.5C375.7,372.3,375.8,372.3,375.9,372.3z"/>
<path class="st0" d="M144.7,5c0-1.9,1.6-3.5,3.5-3.6h22c1.9,0.1,3.4,1.6,3.5,3.6v123.9c-0.1,1.9-1.6,3.5-3.5,3.6h-22
	c-1.9-0.1-3.4-1.6-3.5-3.6V5z"/>
<path class="st0" d="M183.1,5c0-1.9,1.5-3.5,3.5-3.6h21.8c1.9,0.1,3.5,1.6,3.5,3.6v100h43.7c1.9,0,3.5,1.6,3.5,3.6V129
	c0,1.9-1.5,3.5-3.5,3.6l0,0h-69c-1.9,0-3.5-1.6-3.5-3.5l0,0V5z"/>
<path class="st0" d="M20.8,138.5c0.3-1.6,1.6-2.9,3.3-2.9H27c1.3,0.1,2.4,0.8,3.1,1.8l42.6,79.3h0.4l42.6-79.3
	c0.7-1.1,1.9-1.8,3.1-1.8h2.9c1.7,0.1,3,1.3,3.3,2.9l20.7,123.3c0.4,1.8-0.8,3.6-2.7,3.9c-0.3,0.1-0.5,0.1-0.8,0.1h-21.7
	c-1.7-0.1-3.1-1.3-3.5-2.9l-8.3-56.7h-0.4l-30.8,59.5c-0.7,1.1-1.8,1.8-3.1,2h-3.3c-1.3-0.1-2.5-0.9-3.1-2l-31-59.5h-0.4l-8.1,56.7
	c-0.3,1.7-1.8,2.9-3.5,2.9H3.5c-1.9,0.1-3.4-1.3-3.5-3.2c0-0.3,0-0.6,0.1-0.8L20.8,138.5z"/>
<path class="st0" d="M141.8,248.4l8.6-15.2c1.5-2.4,5-2,6.2-1.1c0.7,0.4,14,10.1,26.1,10.1c7.3,0,12.7-4.6,12.7-11
	c0-7.7-6.4-13.6-18.9-18.5c-15.8-6.2-35.6-18.5-35.6-40.6c0-18.2,14.1-36.5,42.4-36.5c19.1,0,33.8,9.7,39.3,13.8
	c2.2,1.3,1.8,4.6,1.1,5.9l-9.4,14.1c-1.3,2-4.6,3.7-6.2,2.4c-1.6-0.9-15.1-11-26.2-11c-6.6,0-11.6,4.4-11.6,9.4
	c0,6.8,5.5,11.9,20,17.8c14.3,5.7,37.1,16.9,37.1,41.9c0,18.9-16.3,38-43.3,38c-23.9,0-37.1-9.9-41.3-14.1
	C140.8,251.7,140.3,251,141.8,248.4z"/>
<path class="st0" d="M225.9,140.9c0.1-1.9,1.6-3.4,3.5-3.5h21.8c1.9,0,3.5,1.6,3.5,3.5l0,0v46.2h52.5v-46.2c0-1.9,1.6-3.5,3.5-3.5
	h21.9c1.9,0.1,3.4,1.6,3.5,3.5v121.5c-0.1,1.9-1.6,3.4-3.5,3.5h-21.9c-1.9,0-3.5-1.6-3.5-3.5v-48.3h-52.5v48.3
	c0,1.9-1.6,3.5-3.5,3.5h-21.8c-1.9-0.1-3.4-1.6-3.5-3.5L225.9,140.9L225.9,140.9z"/>
<path class="st0" d="M0,274.2c0.1-1.9,1.6-3.4,3.5-3.5h22.6c1.9,0,3.5,1.6,3.5,3.5v74.3c0,12.9,9.5,23.1,22.6,23.1
	c13.2,0,22.9-10.3,22.9-23.1v-74.3c0-1.9,1.6-3.5,3.5-3.5h22.6c1.9,0.1,3.4,1.6,3.5,3.5V350c0,27.9-23.5,51-52.5,51
	C23.3,401.1,0,377.9,0,350V274.2z"/>
<path class="st0" d="M114,274.2c0-1.9,1.6-3.5,3.5-3.5h54.9c22,0,40,17.8,40,39.6c0,16.9-11.2,30.5-27.2,36.9l25.1,46.6
	c1,1.6,0.5,3.8-1.1,4.8c-0.6,0.4-1.3,0.6-2,0.5h-24.4c-1.2,0-2.3-0.6-2.9-1.6l-24.4-48.6h-12.7v46.8c-0.1,1.9-1.6,3.4-3.5,3.5h-21.8
	c-1.9,0-3.5-1.6-3.5-3.5L114,274.2z M170,325.6c7.5,0,13.9-7,13.9-14.7c-0.1-7.7-6.3-13.9-14-13.9h-27.2v28.6H170z"/>
<path class="st0" d="M209.4,381.8l8.6-15.2c1.5-2.4,5-2,6.2-1.1c0.7,0.4,13.9,10.1,26.1,10.1c7.3,0,12.7-4.6,12.7-11
	c0-7.7-6.4-13.6-18.9-18.5c-15.8-6.2-35.6-18.5-35.6-40.6c0-18.2,14.1-36.5,42.4-36.5c19.1,0,33.8,9.7,39.3,13.8
	c2.2,1.3,1.8,4.6,1.1,5.9l-9.4,14.1c-1.3,2-4.6,3.7-6.2,2.4c-1.7-0.9-15-11-26.3-11c-6.6,0-11.6,4.4-11.6,9.4
	c0,6.8,5.5,11.9,20,17.8c14.3,5.7,37.1,16.9,37.1,41.9c0,18.9-16.3,38-43.3,38c-23.9,0-37.1-9.9-41.3-14.1
	C208.5,385.1,207.9,384.4,209.4,381.8z"/>
<path class="st0" d="M313.7,297.7h-26.2c-1.9,0-3.5-1.6-3.5-3.5v-20c0-1.9,1.6-3.5,3.5-3.5H369c1.9,0,3.5,1.6,3.5,3.5v20
	c0,1.9-1.6,3.5-3.5,3.5h-26.2v98c-0.1,1.9-1.6,3.4-3.5,3.5h-22c-1.9-0.1-3.4-1.6-3.5-3.5L313.7,297.7z"/>
<path class="st0" d="M125.1,129.2c-0.3,1.6-1.7,2.9-3.3,2.9h-2.9c-1.3-0.1-2.4-0.8-3.1-1.8L73.1,51h-0.4l-42.6,79.3
	c-0.7,1.1-1.8,1.8-3.1,1.8h-2.9c-1.7-0.1-3-1.3-3.3-2.9L0.1,5.9c-0.4-1.9,0.8-3.6,2.6-4c0.3,0,0.6,0,0.8,0h21.7
	c1.7,0.1,3.1,1.3,3.5,2.9L37,61.5h0.4L68.2,2c0.7-1.1,1.8-1.8,3.1-2h3.3c1.3,0.1,2.5,0.9,3.1,2l31,59.5h0.4l8.1-56.7
	c0.3-1.7,1.8-2.9,3.5-2.9h21.7c1.9-0.1,3.4,1.3,3.5,3.2c0,0.3,0,0.6-0.1,0.8L125.1,129.2z"/>
</svg>
